<?xml version="1.0" encoding="UTF-8"?><svg id="Layer_1" xmlns="http://www.w3.org/2000/svg" viewBox="0 0 200 200"><defs><style>.cls-1{stroke-width:0px;}</style></defs><path class="cls-1" d="m0,0l43.79.05c37.57-.04,75.15-.09,112.72,0l43.51-.05s-.02,200-.02,200l-43.68-.06c-37.57.04-118.75.24-156.32.15V0Zm175.25,99.96c.06,0,.12,0,.18,0,0-5.97.1-11.94-.03-17.91-.13-6.15-.31-12.3-.75-18.44-.44-6.03-2.01-11.83-4.86-17.19-6.35-11.91-16.54-18.42-29.62-20.74-5.9-1.05-11.88-1.19-17.84-1.25-12.68-.12-25.36-.11-38.04-.09-7.41.01-14.83.07-22.21.98-6.13.76-12,2.45-17.33,5.62-10.91,6.5-16.88,16.34-19.07,28.68-.99,5.6-1.21,11.27-1.23,16.92-.05,17.17.04,34.34.16,51.51.04,5.26.53,10.5,1.8,15.64,2.73,11.01,8.77,19.62,18.64,25.35,6.99,4.06,14.72,5.64,22.7,5.97,6.55.27,13.1.38,19.66.39,13.29.01,26.59-.06,39.88-.18,5.26-.05,10.52-.41,15.66-1.66,15.07-3.65,25.15-12.71,29.81-27.6,1.88-6.02,2.38-12.25,2.45-18.5.1-9.17.03-18.34.03-27.51Z"/><path class="cls-1" d="m37.75,99.91c.1-8.65.16-17.29.33-25.94.1-4.95.28-9.91,1.52-14.74,2.9-11.32,10.25-17.95,21.63-20.01,4.03-.73,8.19-1.03,12.29-1.1,11.69-.21,23.39-.26,35.08-.25,7.2,0,14.4.2,21.6.39,4.6.12,9.14.7,13.5,2.27,8.68,3.14,14.03,9.33,16.41,18.17.93,3.43,1.4,6.95,1.46,10.48.19,11.9.35,23.81.41,35.72.04,6.98-.07,13.97-.22,20.95-.11,4.98-.28,9.97-1.54,14.83-2.92,11.28-10.27,17.87-21.61,19.92-4.03.73-8.19,1.03-12.29,1.1-11.72.21-23.45.26-35.17.25-7.2,0-14.4-.2-21.6-.39-4.56-.12-9.08-.7-13.41-2.27-8.72-3.16-14.06-9.37-16.43-18.25-1.33-4.98-1.53-10.09-1.64-15.19-.17-8.64-.23-17.29-.33-25.94Zm100.97.02c0-21.45-17.3-38.78-38.76-38.81-21.44-.03-38.83,17.31-38.84,38.73-.01,21.51,17.32,38.86,38.8,38.86,21.45,0,38.79-17.34,38.79-38.78Zm10.54-40.19c.05-5.04-3.88-9.09-8.89-9.16-5.05-.07-9.17,3.93-9.22,8.96-.05,4.96,3.99,9.08,8.96,9.15,4.98.07,9.09-3.96,9.14-8.94Z"/><path class="cls-1" d="m125.2,99.92c-.07,14.09-11.43,25.35-25.51,25.27-13.95-.08-25.15-11.53-25.06-25.62.09-13.82,11.55-25.01,25.55-24.94,13.75.06,25.08,11.52,25.02,25.3Z"/></svg>