<?xml version="1.0" encoding="UTF-8"?><svg id="Layer_1" xmlns="http://www.w3.org/2000/svg" viewBox="0 0 200 200"><defs><style>.cls-1{fill-rule:evenodd;stroke-width:0px;}</style></defs><path class="cls-1" d="m108.31,89.82v-.29c-.06.1-.14.2-.19.29h.19Z"/><path class="cls-1" d="m0,0v200h200V0H0Zm62.21,166.15h-29.67v-89.27h29.67v89.27Zm-14.84-101.46h-.2c-9.95,0-16.41-6.86-16.41-15.43s6.64-15.42,16.8-15.42,16.4,6.66,16.59,15.42c0,8.57-6.44,15.43-16.79,15.43Zm121.86,101.46h-29.68v-47.76c0-12-4.29-20.18-15.03-20.18-8.2,0-13.08,5.51-15.23,10.85-.78,1.91-.98,4.56-.98,7.23v49.86h-29.69s.4-80.9,0-89.27h29.69v12.65c3.94-6.07,10.98-14.75,26.75-14.75,19.53,0,34.17,12.76,34.17,40.17v51.19Z"/></svg>